{"glyphs":{"0":{"ha":833,"x_min":83,"x_max":750,"o":"m 750 597 q 667 376 750 471 q 460 267 585 282 l 460 350 q 608 435 549 365 q 667 597 667 506 q 593 774 667 700 q 417 847 519 847 q 240 774 314 847 q 167 597 167 700 q 226 436 167 506 q 375 351 285 367 l 375 267 q 167 376 250 282 q 83 597 83 471 q 181 833 83 735 q 417 931 279 931 q 652 833 554 931 q 750 597 750 735 z "},"1":{"ha":361,"x_min":139,"x_max":222,"o":"m 222 -111 l 139 -111 l 139 778 l 222 778 l 222 -111 z "},"2":{"ha":781,"x_min":69,"x_max":683,"o":"m 683 597 q 567 344 683 447 l 507 403 q 600 597 600 483 q 526 774 600 700 q 350 847 453 847 q 143 738 217 847 l 69 778 q 190 890 115 849 q 350 931 265 931 q 585 833 488 931 q 683 597 683 735 m 579 0 l 99 0 l 446 347 l 506 289 l 300 83 l 579 83 l 579 0 z "},"3":{"ha":789,"x_min":83,"x_max":706,"o":"m 626 889 l 240 503 l 181 561 l 425 806 l 93 806 l 176 889 l 626 889 m 706 285 q 608 49 706 147 q 372 -50 510 -50 q 206 -5 285 -50 q 83 117 128 40 l 156 158 q 247 67 189 101 q 372 33 306 33 q 549 108 475 33 q 622 285 622 182 q 549 460 622 386 q 374 533 475 533 q 333 528 357 533 l 415 614 q 622 504 539 599 q 706 285 706 410 z "},"4":{"ha":847,"x_min":56,"x_max":736,"o":"m 736 403 l 667 403 l 667 -111 l 583 -111 l 583 403 l 56 403 l 404 997 l 476 954 l 201 486 l 583 486 l 583 778 l 667 778 l 667 486 l 736 486 l 736 403 z "},"5":{"ha":806,"x_min":97,"x_max":722,"o":"m 722 285 q 624 49 722 147 q 389 -49 526 -49 q 219 -2 299 -49 q 97 122 140 44 l 175 154 q 389 35 250 35 q 565 108 492 35 q 639 285 639 182 q 565 461 639 388 q 389 535 492 535 q 199 444 271 535 l 115 528 l 115 889 l 574 889 l 574 806 l 199 806 l 199 558 q 388 618 282 618 q 624 520 525 618 q 722 285 722 422 z "},"6":{"ha":806,"x_min":69,"x_max":736,"o":"m 506 954 l 224 474 l 151 515 l 435 997 l 506 954 m 736 289 q 638 53 736 151 q 403 -44 540 -44 q 167 53 265 -44 q 69 289 69 151 q 108 444 69 371 l 182 403 q 154 289 154 349 q 227 112 154 185 q 403 39 300 39 q 579 113 506 39 q 653 289 653 186 q 580 465 653 390 q 406 539 507 539 q 349 532 378 539 l 403 622 q 638 524 540 622 q 736 289 736 426 z "},"7":{"ha":733,"x_min":42,"x_max":692,"o":"m 692 875 l 114 -132 l 42 -90 l 572 833 l 64 833 l 111 917 l 619 917 l 692 875 z "},"8":{"ha":917,"x_min":125,"x_max":792,"o":"m 792 597 q 694 362 792 460 q 458 264 596 264 l 458 347 q 635 421 561 347 q 708 597 708 494 q 635 774 708 700 q 458 847 561 847 q 280 772 353 847 q 208 590 207 696 l 135 518 q 125 597 125 554 q 223 833 125 735 q 458 931 321 931 q 694 833 596 931 q 792 597 792 735 m 792 292 q 694 56 792 154 q 458 -42 596 -42 q 223 56 321 -42 q 125 292 125 154 q 223 527 125 429 q 458 625 321 625 l 458 542 q 282 468 356 542 q 208 292 208 394 q 282 115 208 189 q 458 42 356 42 q 637 117 564 42 q 708 299 710 193 l 782 371 q 792 292 792 335 z "},"9":{"ha":875,"x_min":83,"x_max":806,"o":"m 675 808 l 614 750 q 417 847 539 847 q 240 774 314 847 q 167 597 167 700 q 240 421 167 494 q 417 349 314 347 l 417 265 q 181 362 278 265 q 83 597 83 458 q 181 833 83 735 q 417 931 279 931 q 675 808 575 931 m 806 472 q 663 128 806 271 q 318 -14 519 -14 q 111 32 214 -14 l 154 106 q 318 69 233 69 q 603 187 485 69 q 722 471 722 304 q 664 679 722 582 l 725 740 q 806 472 806 617 z "}," ":{"ha":625,"x_min":0,"x_max":0,"o":""},"!":{"ha":389,"x_min":136,"x_max":247,"o":"m 231 218 l 147 218 l 147 938 l 231 938 l 231 218 m 247 56 q 231 17 247 33 q 192 0 214 0 q 153 17 169 0 q 136 56 136 33 q 153 94 136 78 q 192 111 169 111 q 231 94 214 111 q 247 56 247 78 z "},"\"":{"ha":333,"x_min":42,"x_max":292,"o":"m 292 889 l 208 889 l 208 1111 l 292 1111 l 292 889 m 125 889 l 42 889 l 42 1111 l 125 1111 l 125 889 z "},"#":{"ha":1042,"x_min":104,"x_max":938,"o":"m 938 617 l 775 617 l 689 485 l 592 485 l 678 617 l 243 617 l 243 700 l 422 700 l 556 929 l 628 886 l 519 700 l 726 700 l 860 929 l 932 886 l 824 700 l 938 700 l 938 617 m 806 318 l 629 318 l 481 60 l 408 103 l 533 318 l 325 318 l 176 60 l 104 103 l 229 318 l 111 318 l 111 401 l 278 401 l 354 533 l 450 533 l 374 401 l 806 401 l 806 318 z "},"$":{"ha":946,"x_min":139,"x_max":808,"o":"m 808 299 q 724 78 808 174 q 514 -32 639 -17 l 514 -139 l 431 -139 l 431 -32 q 239 64 318 -17 l 300 119 q 431 51 353 64 l 431 843 q 281 758 340 828 q 222 597 222 688 q 268 453 222 518 q 389 361 314 388 l 389 274 q 209 394 279 303 q 139 597 139 485 q 222 817 139 722 q 431 928 306 913 l 431 1028 l 514 1028 l 514 928 q 708 832 628 913 l 647 776 q 514 844 592 832 l 514 51 q 665 137 604 67 q 725 299 725 207 q 678 443 725 378 q 557 535 632 508 l 557 622 q 738 503 667 593 q 808 299 808 413 z "},"%":{"ha":1375,"x_min":69,"x_max":1306,"o":"m 1306 296 q 1241 122 1306 197 q 1079 32 1176 47 l 1079 117 q 1182 181 1142 131 q 1222 294 1222 231 q 1169 425 1222 371 q 1039 479 1115 479 q 908 426 963 479 q 854 296 854 372 q 894 181 854 232 q 997 115 935 131 l 996 31 q 835 122 900 46 q 771 294 771 197 q 849 484 771 406 q 1038 563 926 563 q 1227 485 1149 563 q 1306 296 1306 407 m 944 808 l 500 39 l 428 81 l 872 850 l 944 808 m 604 588 q 540 414 604 489 q 378 324 475 339 l 378 408 q 481 472 440 422 q 521 586 521 522 q 467 717 521 663 q 338 771 414 771 q 207 717 261 771 q 153 588 153 664 q 193 473 153 524 q 296 407 233 422 l 294 322 q 134 413 199 338 q 69 586 69 489 q 147 776 69 697 q 336 854 225 854 q 526 776 447 854 q 604 588 604 699 z "},"&":{"ha":914,"x_min":69,"x_max":914,"o":"m 914 35 l 871 -32 l 324 528 q 199 438 246 501 q 151 294 151 375 q 224 112 151 188 q 404 36 297 36 q 528 69 469 36 q 622 160 588 103 l 681 101 q 560 -6 635 33 q 403 -46 485 -46 q 167 52 265 -46 q 69 289 69 150 q 119 463 69 382 q 254 583 169 543 q 167 758 167 665 q 230 909 167 846 q 381 972 293 972 q 531 911 468 972 q 594 764 594 850 q 444 576 594 622 q 381 633 422 594 q 511 764 511 665 l 513 764 q 472 852 511 815 q 381 889 433 889 q 288 850 326 889 q 249 757 249 811 q 279 674 249 704 l 914 35 z "},"'":{"ha":167,"x_min":42,"x_max":125,"o":"m 125 889 l 42 889 l 42 1111 l 125 1111 l 125 889 z "},"(":{"ha":439,"x_min":42,"x_max":328,"o":"m 328 -186 l 258 -231 q 42 450 42 101 q 99 804 42 622 q 261 1124 160 997 l 326 1071 q 178 781 232 954 q 125 457 125 615 q 328 -186 125 125 z "},")":{"ha":439,"x_min":42,"x_max":328,"o":"m 328 450 q 111 -231 328 101 l 42 -186 q 244 457 244 125 q 193 781 244 615 q 44 1071 138 954 l 108 1124 q 271 804 210 997 q 328 450 328 622 z "},"*":{"ha":721,"x_min":111,"x_max":610,"o":"m 610 613 l 568 540 l 403 636 l 403 444 l 319 444 l 319 636 l 153 540 l 111 613 l 278 708 l 111 804 l 153 876 l 319 781 l 319 972 l 403 972 l 403 781 l 568 876 l 610 804 l 444 708 l 610 613 z "},"+":{"ha":819,"x_min":139,"x_max":681,"o":"m 681 403 l 444 403 l 444 181 l 361 181 l 361 403 l 139 403 l 139 486 l 361 486 l 361 708 l 444 708 l 444 486 l 681 486 l 681 403 z "},",":{"ha":267,"x_min":42,"x_max":225,"o":"m 225 11 l 114 -181 l 42 -139 l 153 53 l 225 11 z "},"-":{"ha":431,"x_min":104,"x_max":326,"o":"m 326 403 l 104 403 l 104 486 l 326 486 l 326 403 z "},"‐":{"ha":431,"x_min":104,"x_max":326,"o":"m 326 403 l 104 403 l 104 486 l 326 486 l 326 403 z "},".":{"ha":222,"x_min":42,"x_max":153,"o":"m 153 56 q 136 17 153 33 q 97 0 119 0 q 58 17 75 0 q 42 56 42 33 q 58 94 42 78 q 97 111 75 111 q 136 94 119 111 q 153 56 153 78 z "},"/":{"ha":801,"x_min":69,"x_max":732,"o":"m 732 931 l 142 -83 l 69 -42 l 660 972 l 732 931 z "},":":{"ha":213,"x_min":56,"x_max":171,"o":"m 171 443 q 154 404 171 421 q 115 388 138 388 q 76 404 93 388 q 60 443 60 421 q 76 482 60 465 q 115 499 93 499 q 154 482 138 499 q 171 443 171 465 m 167 56 q 150 17 167 33 q 111 0 133 0 q 72 17 89 0 q 56 56 56 33 q 72 94 56 78 q 111 111 89 111 q 150 94 133 111 q 167 56 167 78 z "},";":{"ha":288,"x_min":42,"x_max":246,"o":"m 246 444 q 229 406 246 422 q 190 389 213 389 q 151 406 168 389 q 135 444 135 422 q 151 483 135 467 q 190 500 168 500 q 229 483 213 500 q 246 444 246 467 m 225 11 l 114 -181 l 42 -139 l 153 53 l 225 11 z "},"<":{"ha":504,"x_min":69,"x_max":435,"o":"m 435 210 l 376 151 l 69 458 l 375 764 l 433 706 l 186 458 l 435 210 z "},"=":{"ha":778,"x_min":139,"x_max":639,"o":"m 639 486 l 139 486 l 139 569 l 639 569 l 639 486 m 639 319 l 139 319 l 139 403 l 639 403 l 639 319 z "},">":{"ha":504,"x_min":69,"x_max":435,"o":"m 435 458 l 128 151 l 69 210 l 318 458 l 71 706 l 129 764 l 435 458 z "},"?":{"ha":944,"x_min":139,"x_max":806,"o":"m 806 607 q 735 402 806 493 q 556 283 665 311 l 556 217 l 472 217 l 472 356 q 649 430 575 356 q 722 607 722 504 q 649 783 722 710 q 472 857 575 857 q 297 784 369 857 q 224 607 224 711 q 251 493 224 546 l 178 451 q 139 606 139 525 q 236 842 139 744 q 472 940 333 940 q 708 842 610 940 q 806 607 806 744 m 565 56 q 549 17 565 33 q 510 0 532 0 q 471 17 488 0 q 454 56 454 33 q 471 94 454 78 q 510 111 488 111 q 549 94 532 111 q 565 56 565 78 z "},"@":{"ha":1169,"x_min":139,"x_max":1031,"o":"m 1031 633 q 936 397 1031 496 q 704 286 842 297 l 704 621 q 597 667 663 667 q 494 624 538 667 q 451 521 451 581 q 494 417 451 460 q 596 375 538 375 q 622 378 610 375 l 622 292 q 442 349 515 283 q 368 521 368 414 q 435 683 368 615 q 597 750 503 750 q 788 649 721 750 l 788 390 q 903 488 860 422 q 947 633 947 554 q 866 823 947 746 q 672 900 785 900 l 672 983 q 925 881 819 983 q 1031 633 1031 779 m 810 50 q 625 13 717 13 q 281 155 424 13 q 139 499 139 297 q 265 828 139 688 q 578 983 390 968 l 578 900 q 323 769 424 885 q 222 499 222 654 q 338 216 222 332 q 619 100 453 100 q 810 144 721 100 l 810 50 z "},"A":{"ha":1058,"x_min":0,"x_max":1058,"o":"m 1058 21 l 988 -21 l 736 403 l 324 403 l 72 -21 l 0 21 l 529 910 l 1058 21 m 686 486 l 531 750 l 374 486 l 686 486 z "},"B":{"ha":729,"x_min":119,"x_max":646,"o":"m 646 222 q 569 35 646 113 q 382 -42 492 -42 l 382 42 q 510 94 457 42 q 563 222 563 147 q 510 350 563 297 q 382 403 457 403 l 382 486 q 510 539 457 486 q 563 667 563 592 q 510 794 563 742 q 382 847 457 847 q 261 801 318 847 q 203 689 203 751 l 203 0 l 119 0 l 119 889 l 203 889 l 203 860 q 382 931 278 931 q 569 853 492 931 q 646 667 646 776 q 524 444 646 522 q 646 222 646 367 z "},"C":{"ha":951,"x_min":78,"x_max":911,"o":"m 911 786 l 851 726 q 564 847 732 847 q 279 729 397 847 q 161 444 161 611 q 280 160 161 279 q 564 42 399 42 q 726 76 649 42 l 769 4 q 564 -42 674 -42 q 220 101 363 -42 q 78 444 78 243 q 221 788 78 646 q 565 931 364 931 q 911 786 769 931 z "},"D":{"ha":1090,"x_min":118,"x_max":1014,"o":"m 1014 444 q 872 101 1014 243 q 528 -42 729 -42 q 451 -36 486 -42 l 451 49 q 528 42 493 42 q 813 160 694 42 q 931 444 931 278 q 813 728 931 610 q 529 847 694 847 q 345 803 433 847 q 201 681 257 758 l 201 0 l 118 0 l 118 889 l 201 889 l 201 804 q 529 931 340 931 q 872 788 731 931 q 1014 444 1014 646 z "},"E":{"ha":535,"x_min":132,"x_max":465,"o":"m 465 0 l 132 0 l 132 889 l 465 889 l 465 806 l 215 806 l 215 486 l 465 486 l 465 403 l 215 403 l 215 83 l 465 83 l 465 0 z "},"F":{"ha":535,"x_min":132,"x_max":465,"o":"m 465 403 l 215 403 l 215 0 l 132 0 l 132 889 l 465 889 l 465 806 l 215 806 l 215 486 l 465 486 l 465 403 z "},"G":{"ha":904,"x_min":69,"x_max":904,"o":"m 904 783 l 844 724 q 554 847 725 847 q 270 729 388 847 q 153 444 153 611 q 271 160 153 278 q 556 42 389 42 q 635 50 597 42 l 635 444 l 722 444 l 722 -12 q 556 -42 642 -42 q 212 101 354 -42 q 69 444 69 243 q 212 788 69 646 q 554 931 354 931 q 904 783 760 931 z "},"H":{"ha":736,"x_min":50,"x_max":689,"o":"m 689 403 l 579 403 l 579 -1 l 496 -1 l 496 403 l 246 403 l 246 -83 l 163 -83 l 163 403 l 50 403 l 50 486 l 163 486 l 163 833 l 246 833 l 246 486 l 496 486 l 496 972 l 579 972 l 579 486 l 689 486 l 689 403 z "},"I":{"ha":389,"x_min":153,"x_max":236,"o":"m 236 0 l 153 0 l 153 889 l 236 889 l 236 0 z "},"J":{"ha":379,"x_min":111,"x_max":261,"o":"m 261 222 q 182 -43 261 76 l 111 -3 q 179 222 179 100 l 179 889 l 261 889 l 261 222 z "},"K":{"ha":703,"x_min":118,"x_max":661,"o":"m 661 25 l 603 -33 l 201 368 l 201 0 l 118 0 l 118 889 l 201 889 l 201 517 l 603 918 l 661 860 l 244 442 l 661 25 z "},"L":{"ha":535,"x_min":132,"x_max":465,"o":"m 465 0 l 132 0 l 132 889 l 215 889 l 215 83 l 465 83 l 465 0 z "},"M":{"ha":896,"x_min":118,"x_max":778,"o":"m 778 0 l 694 0 l 694 717 l 449 471 l 201 717 l 201 0 l 118 0 l 118 918 l 449 588 l 778 918 l 778 0 z "},"N":{"ha":903,"x_min":119,"x_max":786,"o":"m 786 0 l 697 0 l 203 494 l 203 0 l 119 0 l 119 696 l 703 117 l 703 972 l 786 972 l 786 0 z "},"O":{"ha":1125,"x_min":76,"x_max":1049,"o":"m 1049 444 q 923 115 1049 256 q 610 -40 797 -25 l 610 43 q 865 174 764 58 q 965 444 965 289 q 847 729 965 611 q 563 847 729 847 q 278 729 396 847 q 160 444 160 611 q 260 175 160 290 q 513 44 360 60 l 513 -40 q 201 116 325 -24 q 76 444 76 256 q 219 788 76 646 q 563 931 361 931 q 906 788 764 931 q 1049 444 1049 646 z "},"P":{"ha":715,"x_min":119,"x_max":646,"o":"m 646 667 q 569 480 646 557 q 382 403 492 403 l 382 486 q 510 539 457 486 q 563 667 563 592 q 510 794 563 742 q 382 847 457 847 q 261 801 318 847 q 203 689 203 751 l 203 0 l 119 0 l 119 889 l 203 889 l 203 860 q 382 931 278 931 q 569 853 492 931 q 646 667 646 776 z "},"Q":{"ha":1132,"x_min":78,"x_max":1050,"o":"m 1050 444 q 992 217 1050 325 q 836 42 935 108 l 1008 42 l 1008 -42 l 604 -40 l 604 43 q 863 174 758 58 q 967 444 967 289 q 849 729 967 611 q 564 847 731 847 q 279 729 397 847 q 161 444 161 611 q 265 175 161 290 q 521 44 368 60 l 521 -40 q 206 117 333 -24 q 78 444 78 257 q 220 788 78 646 q 564 931 363 931 q 908 788 765 931 q 1050 444 1050 646 z "},"R":{"ha":840,"x_min":119,"x_max":840,"o":"m 840 29 l 782 -29 l 339 414 l 382 486 q 510 539 457 486 q 563 667 563 592 q 510 794 563 742 q 382 847 457 847 q 261 801 318 847 q 203 689 203 751 l 203 0 l 119 0 l 119 889 l 203 889 l 203 860 q 382 931 278 931 q 569 853 492 931 q 646 667 646 776 q 592 508 646 579 q 456 414 539 438 l 840 29 z "},"S":{"ha":665,"x_min":69,"x_max":651,"o":"m 382 164 q 319 271 382 236 l 361 340 q 463 164 463 282 q 403 19 463 79 q 260 -40 343 -40 q 82 63 143 -40 l 151 103 q 260 40 189 40 q 347 76 311 40 q 382 164 382 113 m 408 860 q 226 783 301 860 q 150 600 150 707 q 185 470 150 531 q 281 375 221 410 l 240 306 q 115 430 161 350 q 69 600 69 510 q 169 840 69 740 q 408 940 268 940 q 651 839 550 940 l 594 782 q 408 860 517 860 z "},"T":{"ha":708,"x_min":78,"x_max":633,"o":"m 633 806 l 397 806 l 397 0 l 314 0 l 314 806 l 78 806 l 78 889 l 633 889 l 633 806 z "},"U":{"ha":778,"x_min":104,"x_max":658,"o":"m 658 -83 l 575 -83 l 575 50 q 382 -28 494 -28 q 186 54 268 -28 q 104 250 104 136 l 104 972 l 188 972 l 188 250 q 244 113 188 169 q 382 56 301 56 q 513 107 451 56 q 575 226 575 158 l 575 889 l 658 889 l 658 -83 z "},"V":{"ha":958,"x_min":14,"x_max":958,"o":"m 958 929 l 396 -21 l 14 643 l 86 685 l 397 143 l 886 972 l 958 929 z "},"W":{"ha":1317,"x_min":28,"x_max":1317,"o":"m 1317 929 l 753 -21 l 371 643 l 443 685 l 756 143 l 1244 972 l 1317 929 m 458 61 l 410 -21 l 28 643 l 100 685 l 458 61 z "},"X":{"ha":975,"x_min":83,"x_max":892,"o":"m 892 57 l 833 -1 l 539 293 l 303 -117 l 231 -75 l 478 354 l 83 749 l 142 807 l 521 428 l 807 924 l 879 882 l 582 367 l 892 57 z "},"Y":{"ha":826,"x_min":28,"x_max":785,"o":"m 785 869 l 271 -21 l 199 21 l 443 444 l 28 860 l 86 918 l 486 519 l 713 911 l 785 869 z "},"Z":{"ha":840,"x_min":56,"x_max":833,"o":"m 833 0 l 56 0 l 304 431 l 138 431 l 138 514 l 353 514 l 521 806 l 140 806 l 140 889 l 571 889 l 642 847 l 449 514 l 610 514 l 610 431 l 401 431 l 200 83 l 833 83 l 833 0 z "},"[":{"ha":431,"x_min":153,"x_max":403,"o":"m 403 -167 l 153 -167 l 153 1056 l 403 1056 l 403 972 l 236 972 l 238 -83 l 403 -83 l 403 -167 z "},"\\":{"ha":801,"x_min":69,"x_max":732,"o":"m 732 -42 l 660 -83 l 69 931 l 142 972 l 732 -42 z "},"]":{"ha":431,"x_min":69,"x_max":319,"o":"m 319 -167 l 69 -167 l 69 -83 l 235 -83 l 236 972 l 69 972 l 69 1056 l 319 1056 l 319 -167 z "},"^":{"ha":367,"x_min":69,"x_max":326,"o":"m 326 965 l 246 965 l 200 1022 l 151 964 l 69 964 l 199 1118 l 326 965 z "},"_":{"ha":944,"x_min":139,"x_max":806,"o":"m 806 0 l 139 0 l 139 83 l 806 83 l 806 0 z "},"`":{"ha":315,"x_min":-14,"x_max":163,"o":"m 163 994 l 103 935 l -14 1053 l 44 1113 l 163 994 z "},"a":{"ha":1058,"x_min":0,"x_max":1058,"o":"m 1058 21 l 988 -21 l 736 403 l 324 403 l 72 -21 l 0 21 l 529 910 l 1058 21 m 686 486 l 531 750 l 374 486 l 686 486 z "},"b":{"ha":729,"x_min":121,"x_max":647,"o":"m 647 222 q 570 35 647 113 q 383 -42 493 -42 l 383 42 q 511 94 458 42 q 564 222 564 147 q 511 350 564 297 q 383 403 458 403 l 383 486 q 511 539 458 486 q 564 667 564 592 q 511 794 564 742 q 383 847 458 847 q 263 801 319 847 q 204 689 204 751 l 204 0 l 121 0 l 121 889 l 204 889 l 204 860 q 383 931 279 931 q 570 853 493 931 q 647 667 647 776 q 525 444 647 522 q 647 222 647 367 z "},"c":{"ha":951,"x_min":78,"x_max":911,"o":"m 911 786 l 851 726 q 564 847 732 847 q 279 729 397 847 q 161 444 161 611 q 280 160 161 279 q 564 42 399 42 q 726 76 649 42 l 769 4 q 564 -42 674 -42 q 220 101 363 -42 q 78 444 78 243 q 221 788 78 646 q 565 931 364 931 q 911 786 769 931 z "},"d":{"ha":1090,"x_min":118,"x_max":1014,"o":"m 1014 444 q 872 101 1014 243 q 528 -42 729 -42 q 451 -36 486 -42 l 451 49 q 528 42 493 42 q 813 160 694 42 q 931 444 931 278 q 813 728 931 610 q 529 847 694 847 q 345 803 433 847 q 201 681 257 758 l 201 0 l 118 0 l 118 889 l 201 889 l 201 804 q 529 931 340 931 q 872 788 731 931 q 1014 444 1014 646 z "},"e":{"ha":535,"x_min":132,"x_max":465,"o":"m 465 0 l 132 0 l 132 889 l 465 889 l 465 806 l 215 806 l 215 486 l 465 486 l 465 403 l 215 403 l 215 83 l 465 83 l 465 0 z "},"f":{"ha":535,"x_min":133,"x_max":467,"o":"m 467 403 l 217 403 l 217 0 l 133 0 l 133 889 l 467 889 l 467 806 l 217 806 l 217 486 l 467 486 l 467 403 z "},"g":{"ha":904,"x_min":69,"x_max":904,"o":"m 904 783 l 844 724 q 554 847 725 847 q 270 729 388 847 q 153 444 153 611 q 271 160 153 278 q 556 42 389 42 q 635 50 597 42 l 635 444 l 722 444 l 722 -12 q 556 -42 642 -42 q 212 101 354 -42 q 69 444 69 243 q 212 788 69 646 q 554 931 354 931 q 904 783 760 931 z "},"h":{"ha":736,"x_min":50,"x_max":689,"o":"m 689 403 l 579 403 l 579 -1 l 496 -1 l 496 403 l 246 403 l 246 -83 l 163 -83 l 163 403 l 50 403 l 50 486 l 163 486 l 163 833 l 246 833 l 246 486 l 496 486 l 496 972 l 579 972 l 579 486 l 689 486 l 689 403 z "},"i":{"ha":389,"x_min":153,"x_max":236,"o":"m 236 0 l 153 0 l 153 889 l 236 889 l 236 0 z "},"j":{"ha":379,"x_min":111,"x_max":261,"o":"m 261 222 q 182 -43 261 76 l 111 -3 q 179 222 179 100 l 178 889 l 261 889 l 261 222 z "},"k":{"ha":703,"x_min":118,"x_max":661,"o":"m 661 25 l 603 -33 l 201 368 l 201 0 l 118 0 l 118 889 l 201 889 l 201 517 l 603 918 l 661 860 l 244 442 l 661 25 z "},"l":{"ha":535,"x_min":132,"x_max":465,"o":"m 465 0 l 132 0 l 132 889 l 215 889 l 215 83 l 465 83 l 465 0 z "},"m":{"ha":896,"x_min":119,"x_max":779,"o":"m 779 0 l 696 0 l 696 717 l 450 471 l 203 717 l 203 0 l 119 0 l 119 918 l 450 588 l 779 918 l 779 0 z "},"n":{"ha":903,"x_min":119,"x_max":786,"o":"m 786 0 l 697 0 l 203 494 l 203 0 l 119 0 l 119 696 l 703 117 l 703 972 l 786 972 l 786 0 z "},"o":{"ha":1125,"x_min":76,"x_max":1049,"o":"m 1049 444 q 923 115 1049 256 q 610 -40 797 -25 l 610 43 q 865 174 764 58 q 965 444 965 289 q 847 729 965 611 q 563 847 729 847 q 278 729 396 847 q 160 444 160 611 q 260 175 160 290 q 513 44 360 60 l 513 -40 q 201 116 325 -24 q 76 444 76 256 q 219 788 76 646 q 563 931 361 931 q 906 788 764 931 q 1049 444 1049 646 z "},"p":{"ha":715,"x_min":119,"x_max":646,"o":"m 646 667 q 569 480 646 557 q 382 403 492 403 l 382 486 q 510 539 457 486 q 563 667 563 592 q 510 794 563 742 q 382 847 457 847 q 261 801 318 847 q 203 689 203 751 l 203 0 l 119 0 l 119 889 l 203 889 l 203 860 q 382 931 278 931 q 569 853 492 931 q 646 667 646 776 z "},"q":{"ha":1132,"x_min":78,"x_max":1050,"o":"m 1050 444 q 993 217 1050 324 q 836 42 936 110 l 1008 42 l 1008 -42 l 604 -42 l 604 43 q 863 174 758 58 q 967 444 967 289 q 849 729 967 611 q 564 847 731 847 q 279 729 397 847 q 161 444 161 611 q 265 175 161 290 q 521 44 368 60 l 521 -40 q 206 116 333 -24 q 78 444 78 256 q 220 788 78 646 q 564 931 363 931 q 908 788 765 931 q 1050 444 1050 646 z "},"r":{"ha":840,"x_min":121,"x_max":842,"o":"m 842 29 l 783 -29 l 340 414 l 383 486 q 511 539 458 486 q 564 667 564 592 q 511 794 564 742 q 383 847 458 847 q 263 801 319 847 q 204 689 204 751 l 204 0 l 121 0 l 121 889 l 204 889 l 204 860 q 383 931 279 931 q 570 853 493 931 q 647 667 647 776 q 594 508 647 579 q 457 414 540 438 l 842 29 z "},"s":{"ha":665,"x_min":69,"x_max":651,"o":"m 382 164 q 319 271 382 236 l 361 340 q 463 164 463 282 q 403 19 463 79 q 260 -40 343 -40 q 82 63 143 -40 l 151 103 q 260 40 189 40 q 347 76 311 40 q 382 164 382 113 m 408 860 q 226 783 301 860 q 150 600 150 707 q 185 470 150 531 q 281 375 221 410 l 240 306 q 115 430 161 350 q 69 600 69 510 q 169 840 69 740 q 408 940 268 940 q 651 839 550 940 l 594 782 q 408 860 517 860 z "},"t":{"ha":708,"x_min":78,"x_max":633,"o":"m 633 806 l 397 806 l 397 0 l 314 0 l 314 806 l 78 806 l 78 889 l 633 889 l 633 806 z "},"u":{"ha":778,"x_min":104,"x_max":658,"o":"m 658 -83 l 575 -83 l 575 50 q 382 -28 494 -28 q 186 54 268 -28 q 104 250 104 136 l 104 972 l 188 972 l 188 250 q 244 113 188 169 q 382 56 301 56 q 513 107 451 56 q 575 226 575 158 l 575 889 l 658 889 l 658 -83 z "},"v":{"ha":958,"x_min":14,"x_max":958,"o":"m 958 929 l 396 -21 l 14 643 l 86 685 l 397 143 l 886 972 l 958 929 z "},"w":{"ha":1317,"x_min":28,"x_max":1317,"o":"m 1317 929 l 753 -21 l 371 643 l 443 685 l 756 143 l 1244 972 l 1317 929 m 458 61 l 410 -21 l 28 643 l 100 685 l 458 61 z "},"x":{"ha":975,"x_min":83,"x_max":892,"o":"m 892 57 l 833 -1 l 539 293 l 303 -117 l 231 -75 l 478 354 l 83 749 l 142 807 l 521 428 l 807 924 l 879 882 l 582 367 l 892 57 z "},"y":{"ha":826,"x_min":28,"x_max":785,"o":"m 785 869 l 271 -21 l 199 21 l 443 444 l 28 860 l 86 918 l 486 519 l 713 911 l 785 869 z "},"z":{"ha":840,"x_min":56,"x_max":833,"o":"m 833 0 l 56 -1 l 304 431 l 138 431 l 138 514 l 353 514 l 521 806 l 140 806 l 140 889 l 571 889 l 642 847 l 449 514 l 610 514 l 610 431 l 401 431 l 200 83 l 833 83 l 833 0 z "},"{":{"ha":385,"x_min":97,"x_max":343,"o":"m 343 -168 l 239 -169 q 97 174 97 -31 q 189 444 97 319 q 97 715 97 569 q 239 1060 97 918 l 343 1058 l 343 975 l 274 975 q 182 719 182 861 q 301 444 182 564 q 182 178 182 342 q 278 -85 182 31 l 343 -85 l 343 -168 z "},"|":{"ha":389,"x_min":153,"x_max":236,"o":"m 236 -167 l 153 -167 l 153 1056 l 236 1056 l 236 -167 z "},"}":{"ha":385,"x_min":69,"x_max":315,"o":"m 315 174 q 174 -169 315 -31 l 69 -168 l 69 -85 l 135 -85 q 231 178 231 31 q 111 444 231 342 q 231 719 231 564 q 139 974 231 863 l 69 974 l 69 1058 l 174 1060 q 315 715 315 918 q 224 444 315 569 q 315 174 315 319 z "},"~":{"ha":539,"x_min":69,"x_max":469,"o":"m 469 1040 q 350 957 418 957 q 263 979 319 957 q 190 1001 207 1001 q 126 954 161 1001 l 69 986 q 190 1065 131 1065 q 276 1043 221 1065 q 351 1021 331 1021 q 415 1074 381 1021 l 469 1040 z "},"Ä":{"ha":1058,"x_min":0,"x_max":1058,"o":"m 732 1003 q 715 964 732 981 q 676 947 699 947 q 638 964 654 947 q 621 1003 621 981 q 638 1042 621 1025 q 676 1058 654 1058 q 715 1042 699 1058 q 732 1003 732 1025 m 429 1003 q 413 964 429 981 q 374 947 396 947 q 335 964 351 947 q 318 1003 318 981 q 335 1042 318 1025 q 374 1058 351 1058 q 413 1042 396 1058 q 429 1003 429 1025 m 1058 21 l 988 -21 l 736 403 l 324 403 l 72 -21 l 0 21 l 529 910 l 1058 21 m 686 486 l 531 750 l 374 486 l 686 486 z "},"Å":{"ha":1058,"x_min":0,"x_max":1058,"o":"m 626 1067 q 597 995 626 1025 q 525 965 567 965 q 455 995 485 965 q 425 1065 425 1025 q 454 1137 425 1107 q 525 1167 483 1167 q 596 1137 565 1167 q 626 1067 626 1107 m 571 1067 q 557 1098 571 1085 q 525 1111 543 1111 q 494 1098 507 1111 q 481 1067 481 1085 q 494 1035 481 1049 q 525 1021 507 1021 q 571 1067 571 1021 m 1058 21 l 988 -21 l 736 403 l 324 403 l 72 -21 l 0 21 l 529 910 l 1058 21 m 686 486 l 531 750 l 374 486 l 686 486 z "},"Ç":{"ha":951,"x_min":76,"x_max":910,"o":"m 910 786 l 850 726 q 563 847 731 847 q 278 728 397 847 q 160 444 160 610 q 278 160 160 279 q 563 42 397 42 q 725 76 647 42 l 768 4 q 561 -42 674 -42 q 514 -39 538 -42 l 486 -85 q 519 -179 519 -129 q 443 -317 519 -271 l 404 -243 q 438 -183 439 -222 q 389 -118 435 -133 l 444 -28 q 180 145 283 13 q 76 444 76 278 q 219 788 76 646 q 564 931 363 931 q 910 786 767 931 z "},"É":{"ha":535,"x_min":132,"x_max":465,"o":"m 419 1053 l 301 935 l 243 994 l 361 1113 l 419 1053 m 465 0 l 132 0 l 132 889 l 465 889 l 465 806 l 215 806 l 215 486 l 465 486 l 465 403 l 215 403 l 215 83 l 465 83 l 465 0 z "},"Ñ":{"ha":903,"x_min":118,"x_max":785,"o":"m 518 942 q 399 858 468 858 q 312 881 368 858 q 239 903 256 903 q 175 856 210 903 l 118 888 q 239 967 181 967 q 324 944 269 967 q 400 922 379 922 q 464 975 429 922 l 518 942 m 785 0 l 696 0 l 201 494 l 201 0 l 118 0 l 118 696 l 701 117 l 701 972 l 785 972 l 785 0 z "},"Ö":{"ha":1125,"x_min":76,"x_max":1049,"o":"m 769 1013 q 753 974 769 990 q 714 957 736 957 q 675 974 692 957 q 658 1013 658 990 q 675 1051 658 1035 q 714 1068 692 1068 q 753 1051 736 1068 q 769 1013 769 1035 m 467 1013 q 450 974 467 990 q 411 957 433 957 q 372 974 389 957 q 356 1013 356 990 q 372 1051 356 1035 q 411 1068 389 1068 q 450 1051 433 1068 q 467 1013 467 1035 m 1049 444 q 923 115 1049 256 q 610 -40 797 -25 l 610 43 q 865 174 764 58 q 965 444 965 289 q 847 729 965 611 q 563 847 729 847 q 278 729 396 847 q 160 444 160 611 q 260 175 160 290 q 513 44 360 60 l 513 -40 q 201 116 325 -24 q 76 444 76 256 q 219 788 76 646 q 563 931 361 931 q 906 788 764 931 q 1049 444 1049 646 z "},"Ü":{"ha":788,"x_min":104,"x_max":669,"o":"m 669 1013 q 653 974 669 990 q 614 957 636 957 q 575 974 592 957 q 558 1013 558 990 q 575 1051 558 1035 q 614 1068 592 1068 q 653 1051 636 1068 q 669 1013 669 1035 m 367 1013 q 350 974 367 990 q 311 957 333 957 q 272 974 289 957 q 256 1013 256 990 q 272 1051 256 1035 q 311 1068 289 1068 q 350 1051 333 1068 q 367 1013 367 1035 m 658 -83 l 575 -83 l 575 50 q 382 -28 494 -28 q 186 54 268 -28 q 104 250 104 136 l 104 972 l 188 972 l 188 250 q 244 113 188 169 q 382 56 301 56 q 513 107 451 56 q 575 226 575 158 l 575 889 l 658 889 l 658 -83 z "},"á":{"ha":1058,"x_min":0,"x_max":1058,"o":"m 649 1053 l 531 935 l 472 994 l 590 1113 l 649 1053 m 1058 21 l 988 -21 l 736 403 l 324 403 l 72 -21 l 0 21 l 529 910 l 1058 21 m 686 486 l 531 750 l 374 486 l 686 486 z "},"à":{"ha":1058,"x_min":0,"x_max":1058,"o":"m 583 994 l 524 935 l 407 1053 l 465 1113 l 583 994 m 1058 21 l 988 -21 l 736 403 l 324 403 l 72 -21 l 0 21 l 529 910 l 1058 21 m 686 486 l 531 750 l 374 486 l 686 486 z "},"â":{"ha":1058,"x_min":0,"x_max":1058,"o":"m 651 965 l 571 965 l 525 1022 l 476 964 l 394 964 l 522 1118 l 524 1117 l 524 1118 l 651 965 m 1058 21 l 988 -21 l 736 403 l 324 403 l 72 -21 l 0 21 l 529 910 l 1058 21 m 686 486 l 531 750 l 374 486 l 686 486 z "},"ä":{"ha":1058,"x_min":0,"x_max":1058,"o":"m 736 1003 q 719 964 736 981 q 681 947 703 947 q 642 964 658 947 q 625 1003 625 981 q 642 1042 625 1025 q 681 1058 658 1058 q 719 1042 703 1058 q 736 1003 736 1025 m 433 1003 q 417 964 433 981 q 378 947 400 947 q 339 964 356 947 q 322 1003 322 981 q 339 1042 322 1025 q 378 1058 356 1058 q 417 1042 400 1058 q 433 1003 433 1025 m 1058 21 l 988 -21 l 736 403 l 324 403 l 72 -21 l 0 21 l 529 910 l 1058 21 m 686 486 l 531 750 l 374 486 l 686 486 z "},"ã":{"ha":1058,"x_min":0,"x_max":1058,"o":"m 731 1040 q 611 957 681 957 q 524 979 581 957 q 451 1001 468 1001 q 388 954 422 1001 l 331 986 q 451 1065 393 1065 q 537 1043 482 1065 q 613 1021 592 1021 q 676 1074 644 1021 l 731 1040 m 1058 21 l 988 -21 l 736 403 l 324 403 l 72 -21 l 0 21 l 529 910 l 1058 21 m 686 486 l 531 750 l 374 486 l 686 486 z "},"å":{"ha":1058,"x_min":0,"x_max":1058,"o":"m 629 1067 q 599 996 629 1026 q 529 965 569 965 q 458 995 489 965 q 428 1065 428 1025 q 458 1136 428 1106 q 528 1167 488 1167 q 599 1137 568 1167 q 629 1067 629 1107 m 574 1067 q 560 1098 574 1085 q 529 1111 547 1111 q 497 1098 511 1111 q 483 1067 483 1085 q 497 1035 483 1049 q 528 1021 510 1021 q 574 1067 574 1021 m 1058 21 l 988 -21 l 736 403 l 324 403 l 72 -21 l 0 21 l 529 910 l 1058 21 m 686 486 l 531 750 l 374 486 l 686 486 z "},"ç":{"ha":951,"x_min":76,"x_max":910,"o":"m 910 786 l 850 726 q 563 847 731 847 q 278 729 396 847 q 160 444 160 611 q 278 160 160 279 q 563 42 397 42 q 725 76 647 42 l 768 4 q 563 -42 674 -42 q 514 -39 538 -42 l 486 -85 q 518 -179 518 -128 q 442 -317 518 -271 l 404 -243 q 438 -183 439 -222 q 389 -118 436 -139 l 444 -28 q 180 145 283 13 q 76 444 76 278 q 219 788 76 646 q 564 931 363 931 q 910 786 767 931 z "},"é":{"ha":535,"x_min":132,"x_max":465,"o":"m 413 1053 l 294 935 l 236 994 l 354 1113 l 413 1053 m 465 0 l 132 0 l 132 889 l 465 889 l 465 806 l 215 806 l 215 486 l 465 486 l 465 403 l 215 403 l 215 83 l 465 83 l 465 0 z "},"è":{"ha":535,"x_min":132,"x_max":465,"o":"m 364 994 l 304 935 l 188 1053 l 246 1113 l 364 994 m 465 0 l 132 0 l 132 889 l 465 889 l 465 806 l 215 806 l 215 486 l 465 486 l 465 403 l 215 403 l 215 83 l 465 83 l 465 0 z "},"ê":{"ha":535,"x_min":132,"x_max":465,"o":"m 426 965 l 346 965 l 300 1022 l 251 964 l 169 964 q 299 1118 210 1013 l 426 965 m 465 0 l 132 0 l 132 889 l 465 889 l 465 806 l 215 806 l 215 486 l 465 486 l 465 403 l 215 403 l 215 83 l 465 83 l 465 0 z "},"ë":{"ha":615,"x_min":132,"x_max":546,"o":"m 546 1003 q 529 964 546 981 q 490 947 513 947 q 451 964 468 947 q 435 1003 435 981 q 451 1042 435 1025 q 490 1058 468 1058 q 529 1042 513 1058 q 546 1003 546 1025 m 243 1003 q 226 964 243 981 q 188 947 210 947 q 149 964 165 947 q 132 1003 132 981 q 149 1042 132 1025 q 188 1058 165 1058 q 226 1042 210 1058 q 243 1003 243 1025 m 510 0 l 176 0 l 176 889 l 510 889 l 510 806 l 260 806 l 260 486 l 510 486 l 510 403 l 260 403 l 260 83 l 510 83 l 510 0 z "},"í":{"ha":482,"x_min":153,"x_max":329,"o":"m 329 1053 l 211 935 l 153 994 l 271 1113 l 329 1053 m 253 0 l 169 0 l 169 889 l 253 889 l 253 0 z "},"ì":{"ha":482,"x_min":153,"x_max":329,"o":"m 329 994 l 271 935 l 153 1053 l 211 1113 l 329 994 m 319 0 l 236 0 l 236 889 l 319 889 l 319 0 z "},"î":{"ha":563,"x_min":153,"x_max":410,"o":"m 410 965 l 329 965 l 283 1022 l 235 964 l 153 964 l 282 1117 l 410 965 m 319 0 l 236 0 l 236 889 l 319 889 l 319 0 z "},"ï":{"ha":719,"x_min":160,"x_max":574,"o":"m 574 1003 q 557 964 574 981 q 518 947 540 947 q 479 964 496 947 q 463 1003 463 981 q 479 1042 463 1025 q 518 1058 496 1058 q 557 1042 540 1058 q 574 1003 574 1025 m 271 1003 q 254 964 271 981 q 215 947 238 947 q 176 964 193 947 q 160 1003 160 981 q 176 1042 160 1025 q 215 1058 193 1058 q 254 1042 238 1058 q 271 1003 271 1025 m 415 0 l 332 0 l 332 889 l 415 889 l 415 0 z "},"ñ":{"ha":903,"x_min":118,"x_max":785,"o":"m 518 942 q 399 858 468 858 q 312 881 368 858 q 239 903 256 903 q 175 856 210 903 l 118 888 q 239 967 181 967 q 324 944 269 967 q 400 922 379 922 q 464 975 429 922 l 518 942 m 785 0 l 696 0 l 201 494 l 201 0 l 118 0 l 118 696 l 701 117 l 701 972 l 785 972 l 785 0 z "},"ó":{"ha":1125,"x_min":76,"x_max":1049,"o":"m 678 1078 l 560 960 l 501 1019 l 619 1138 l 678 1078 m 1049 444 q 923 115 1049 256 q 610 -40 797 -25 l 610 43 q 865 174 764 58 q 965 444 965 289 q 847 729 965 611 q 563 847 729 847 q 278 729 396 847 q 160 444 160 611 q 260 175 160 290 q 513 44 360 60 l 513 -40 q 201 116 325 -24 q 76 444 76 256 q 219 788 76 646 q 563 931 361 931 q 906 788 764 931 q 1049 444 1049 646 z "},"ò":{"ha":1125,"x_min":76,"x_max":1049,"o":"m 622 1035 l 563 975 l 446 1093 l 504 1153 l 622 1035 m 1049 444 q 923 115 1049 256 q 610 -40 797 -25 l 610 43 q 865 174 764 58 q 965 444 965 289 q 847 729 965 611 q 563 847 729 847 q 278 729 396 847 q 160 444 160 611 q 260 175 160 290 q 513 44 360 60 l 513 -40 q 201 116 325 -24 q 76 444 76 256 q 219 788 76 646 q 563 931 361 931 q 906 788 764 931 q 1049 444 1049 646 z "},"ô":{"ha":1125,"x_min":76,"x_max":1049,"o":"m 688 1003 l 607 1003 l 561 1060 l 513 1003 l 431 1003 l 560 1156 l 688 1003 m 1049 444 q 923 115 1049 256 q 610 -40 797 -25 l 610 43 q 865 174 764 58 q 965 444 965 289 q 847 729 965 611 q 563 847 729 847 q 278 729 396 847 q 160 444 160 611 q 260 175 160 290 q 513 44 360 60 l 513 -40 q 201 116 325 -24 q 76 444 76 256 q 219 788 76 646 q 563 931 361 931 q 906 788 764 931 q 1049 444 1049 646 z "},"ö":{"ha":1125,"x_min":76,"x_max":1049,"o":"m 767 1003 q 750 964 767 981 q 711 947 733 947 q 672 964 689 947 q 656 1003 656 981 q 672 1042 656 1025 q 711 1058 689 1058 q 750 1042 733 1058 q 767 1003 767 1025 m 464 1003 q 447 964 464 981 q 408 947 431 947 q 369 964 386 947 q 353 1003 353 981 q 369 1042 353 1025 q 408 1058 386 1058 q 447 1042 431 1058 q 464 1003 464 1025 m 1049 444 q 923 115 1049 256 q 610 -40 797 -25 l 610 43 q 865 174 764 58 q 965 444 965 289 q 847 729 965 611 q 563 847 729 847 q 278 729 396 847 q 160 444 160 611 q 260 175 160 290 q 513 44 360 60 l 513 -40 q 201 116 325 -24 q 76 444 76 256 q 219 788 76 646 q 563 931 361 931 q 906 788 764 931 q 1049 444 1049 646 z "},"õ":{"ha":1125,"x_min":76,"x_max":1049,"o":"m 757 1040 q 638 957 706 957 q 551 979 607 957 q 478 1001 494 1001 q 414 954 449 1001 l 357 986 q 478 1065 418 1065 q 563 1043 508 1065 q 639 1021 618 1021 q 703 1074 668 1021 l 757 1040 m 1049 444 q 923 115 1049 256 q 610 -40 797 -25 l 610 43 q 865 174 764 58 q 965 444 965 289 q 847 729 965 611 q 563 847 729 847 q 278 729 396 847 q 160 444 160 611 q 260 175 160 290 q 513 44 360 60 l 513 -40 q 201 116 325 -24 q 76 444 76 256 q 219 788 76 646 q 563 931 361 931 q 906 788 764 931 q 1049 444 1049 646 z "},"ú":{"ha":778,"x_min":104,"x_max":658,"o":"m 482 1053 l 364 935 l 306 994 l 424 1113 l 482 1053 m 658 -83 l 575 -83 l 575 50 q 382 -28 494 -28 q 186 54 268 -28 q 104 250 104 136 l 104 972 l 188 972 l 188 250 q 244 113 188 169 q 382 56 301 56 q 513 107 451 56 q 575 226 575 158 l 575 889 l 658 889 l 658 -83 z "},"ù":{"ha":778,"x_min":104,"x_max":658,"o":"m 446 994 l 386 935 l 269 1053 l 328 1113 l 446 994 m 658 -83 l 575 -83 l 575 50 q 382 -28 494 -28 q 186 54 268 -28 q 104 250 104 136 l 104 972 l 188 972 l 188 250 q 244 113 188 169 q 382 56 301 56 q 513 107 451 56 q 575 226 575 158 l 575 889 l 658 889 l 658 -83 z "},"û":{"ha":778,"x_min":104,"x_max":658,"o":"m 533 965 l 453 965 l 407 1022 l 358 964 l 276 965 l 406 1118 l 533 965 m 658 -83 l 575 -83 l 575 50 q 382 -28 494 -28 q 186 54 268 -28 q 104 250 104 136 l 104 972 l 188 972 l 188 250 q 244 113 188 169 q 382 56 301 56 q 513 107 451 56 q 575 226 575 158 l 575 889 l 658 889 l 658 -83 z "},"ü":{"ha":788,"x_min":104,"x_max":669,"o":"m 669 1013 q 653 974 669 990 q 614 957 636 957 q 575 974 592 957 q 558 1013 558 990 q 575 1051 558 1035 q 614 1068 592 1068 q 653 1051 636 1068 q 669 1013 669 1035 m 367 1013 q 350 974 367 990 q 311 957 333 957 q 272 974 289 957 q 256 1013 256 990 q 272 1051 256 1035 q 311 1068 289 1068 q 350 1051 333 1068 q 367 1013 367 1035 m 658 -83 l 575 -83 l 575 50 q 382 -28 494 -28 q 186 54 268 -28 q 104 250 104 136 l 104 972 l 188 972 l 188 250 q 244 113 188 169 q 382 56 301 56 q 513 107 451 56 q 575 226 575 158 l 575 889 l 658 889 l 658 -83 z "},"†":{"ha":472,"x_min":69,"x_max":403,"o":"m 403 931 l 278 931 l 278 444 l 194 444 l 194 931 l 69 931 l 69 1014 l 194 1014 l 194 1111 l 278 1111 l 278 1014 l 403 1014 l 403 931 z "},"°":{"ha":431,"x_min":28,"x_max":403,"o":"m 403 951 q 362 834 403 886 q 257 768 321 782 l 257 854 q 319 951 319 881 q 290 1026 319 996 q 215 1056 260 1056 q 142 1024 174 1056 q 111 951 111 993 q 174 856 111 879 l 174 768 q 69 834 110 782 q 28 951 28 886 q 83 1083 28 1028 q 215 1139 139 1139 q 347 1083 292 1139 q 403 951 403 1028 z "},"¢":{"ha":697,"x_min":69,"x_max":628,"o":"m 628 818 l 571 761 q 383 843 492 843 q 218 771 288 843 q 149 601 149 699 q 205 446 149 514 q 347 364 261 378 l 347 797 q 385 800 371 800 q 431 796 393 800 l 431 364 q 499 385 465 369 l 538 315 q 431 283 486 292 l 431 194 l 347 194 l 347 283 q 149 390 228 299 q 69 601 69 481 q 149 813 69 721 q 347 921 229 906 l 347 1000 l 431 1000 l 431 921 q 628 818 544 904 z "},"£":{"ha":946,"x_min":35,"x_max":876,"o":"m 467 576 l 564 576 l 564 493 l 418 493 l 176 83 l 794 83 l 794 0 l 35 0 l 322 493 l 217 493 l 217 576 l 371 576 l 517 826 q 689 938 582 938 q 821 882 765 938 q 876 750 876 826 l 793 750 q 762 823 793 792 q 689 854 731 854 q 606 813 636 854 q 467 576 560 750 z "},"§":{"ha":804,"x_min":72,"x_max":721,"o":"m 721 850 l 651 813 q 494 896 592 896 q 358 838 415 896 q 301 701 301 781 q 340 572 301 629 q 447 494 379 515 l 407 428 q 371 435 389 435 q 319 413 342 435 q 297 360 297 390 q 333 296 297 317 l 292 226 q 218 360 218 274 q 299 497 218 453 q 222 694 222 576 q 305 890 222 807 q 500 974 388 974 q 721 850 631 974 m 576 333 q 496 197 576 242 q 572 0 572 117 q 489 -197 572 -112 q 293 -281 406 -281 q 72 -156 164 -281 l 143 -118 q 300 -201 201 -201 q 436 -144 379 -201 q 493 -7 493 -86 q 453 121 493 64 q 347 200 414 178 l 386 265 q 421 258 404 258 q 474 281 451 258 q 496 333 496 303 q 461 399 496 375 l 501 467 q 576 333 576 421 z "},"•":{"ha":1167,"x_min":139,"x_max":1028,"o":"m 1028 0 l 139 0 l 139 889 l 1028 889 l 1028 0 m 944 83 l 944 806 l 222 806 l 222 83 l 944 83 m 806 222 l 361 222 l 361 667 l 806 667 l 806 222 m 722 306 l 722 583 l 444 583 l 444 306 l 722 306 z "},"¶":{"ha":901,"x_min":69,"x_max":790,"o":"m 790 -83 l 707 -83 l 707 889 l 790 889 l 790 -83 m 596 -83 l 513 -83 l 513 689 q 454 801 513 751 q 333 847 397 847 q 206 794 258 847 q 153 667 153 742 q 206 539 153 592 q 333 486 258 486 l 333 403 q 147 480 224 403 q 69 667 69 557 q 147 853 69 776 q 333 931 224 931 q 513 860 438 931 l 513 889 l 596 889 l 596 -83 z "},"ß":{"ha":939,"x_min":7,"x_max":843,"o":"m 767 794 q 690 649 767 700 q 575 610 639 615 q 504 576 533 607 q 475 506 475 546 q 535 413 475 442 l 535 322 q 432 390 472 338 q 392 506 392 442 q 447 635 392 585 q 583 690 503 685 q 654 722 625 693 q 683 793 683 751 q 600 893 683 872 q 454 900 568 900 q 286 839 353 900 q 217 678 219 778 l 215 -186 l 131 -186 l 131 403 l 7 403 l 7 486 l 131 486 l 131 678 q 223 896 131 807 q 447 986 315 985 l 519 988 q 689 946 622 989 q 767 794 767 894 m 843 131 q 764 -60 843 19 q 574 -139 685 -139 q 383 -60 463 -139 q 304 131 304 19 l 388 131 q 442 -1 388 54 q 574 -56 497 -56 q 705 -1 650 -56 q 760 131 760 54 q 720 245 760 194 q 618 311 681 296 l 618 396 q 779 305 715 381 q 843 131 843 229 z "},"®":{"ha":1125,"x_min":76,"x_max":1049,"o":"m 813 204 l 761 151 l 497 419 l 536 485 q 608 509 578 485 q 638 574 638 533 q 611 637 638 610 q 549 664 585 664 q 488 637 514 664 q 461 575 461 610 l 461 179 l 388 179 l 388 718 l 461 718 l 461 713 q 549 739 501 739 q 663 690 615 739 q 711 574 711 642 q 680 479 711 521 q 599 421 649 438 l 813 204 m 1049 444 q 923 115 1049 256 q 610 -40 797 -25 l 610 43 q 865 174 764 58 q 965 444 965 289 q 847 729 965 611 q 563 847 729 847 q 278 729 396 847 q 160 444 160 611 q 260 175 160 290 q 513 44 360 60 l 513 -40 q 201 116 325 -24 q 76 444 76 256 q 219 788 76 646 q 563 931 361 931 q 906 788 764 931 q 1049 444 1049 646 z "},"©":{"ha":1125,"x_min":76,"x_max":1049,"o":"m 1049 444 q 923 115 1049 256 q 610 -40 797 -25 l 610 43 q 865 174 764 58 q 965 444 965 289 q 847 729 965 611 q 563 847 729 847 q 278 729 396 847 q 160 444 160 611 q 260 175 160 290 q 513 44 360 60 l 513 -40 q 201 116 325 -24 q 76 444 76 256 q 219 788 76 646 q 563 931 361 931 q 906 788 764 931 q 1049 444 1049 646 m 763 618 l 713 568 q 561 638 647 638 q 425 578 482 638 q 368 440 368 519 q 425 302 368 360 q 563 244 482 244 q 654 264 608 244 l 689 204 q 563 175 629 175 q 376 253 453 175 q 299 440 299 331 q 376 628 299 549 q 561 707 453 707 q 763 618 676 707 z "},"™":{"ha":774,"x_min":69,"x_max":704,"o":"m 704 444 l 638 444 l 638 732 l 533 629 l 428 732 l 428 444 l 361 444 l 361 824 l 249 824 l 249 444 l 182 444 l 182 824 l 69 824 l 69 889 l 361 889 l 361 890 l 533 721 l 704 890 l 704 444 z "},"´":{"ha":315,"x_min":69,"x_max":246,"o":"m 246 1053 l 128 935 l 69 994 l 188 1113 l 246 1053 z "},"¨":{"ha":567,"x_min":83,"x_max":497,"o":"m 497 1003 q 481 964 497 981 q 442 947 464 947 q 403 964 419 947 q 386 1003 386 981 q 403 1042 386 1025 q 442 1058 419 1058 q 481 1042 464 1058 q 497 1003 497 1025 m 194 1003 q 178 964 194 981 q 139 947 161 947 q 100 964 117 947 q 83 1003 83 981 q 100 1042 83 1025 q 139 1058 117 1058 q 178 1042 161 1058 q 194 1003 194 1025 z "},"≠":{"ha":796,"x_min":139,"x_max":657,"o":"m 657 322 l 329 322 l 197 192 l 139 250 l 211 322 l 143 322 l 143 406 l 294 406 l 378 489 l 143 489 l 143 572 l 461 572 l 586 697 l 646 639 l 579 572 l 657 572 l 657 489 l 496 489 l 413 406 l 657 406 l 657 322 z "},"Æ":{"ha":1229,"x_min":0,"x_max":1174,"o":"m 1174 0 l 975 0 l 736 403 l 324 403 l 72 -21 l 0 21 l 517 889 l 1156 889 l 1156 806 l 592 806 l 782 486 l 1174 486 l 1174 403 l 832 403 l 1022 83 l 1174 83 l 1174 0 m 688 486 l 531 750 l 374 486 l 688 486 z "},"Ø":{"ha":1126,"x_min":76,"x_max":1050,"o":"m 1050 444 q 907 99 1050 243 q 563 -44 764 -44 q 282 47 408 -44 l 342 108 q 563 39 443 39 q 848 158 729 39 q 967 444 967 278 q 850 730 967 613 q 565 847 733 847 q 279 728 399 847 q 160 442 160 608 q 222 231 160 325 l 163 171 q 76 443 76 290 q 220 788 76 644 q 565 931 364 931 q 875 819 739 931 l 931 875 l 989 815 l 935 761 q 1050 444 1050 624 m 842 669 l 197 24 l 139 83 l 783 729 q 842 669 817 710 z "},"∞":{"ha":694,"x_min":0,"x_max":0,"o":""},"±":{"ha":819,"x_min":167,"x_max":653,"o":"m 653 583 l 444 583 l 444 389 l 361 389 l 361 583 l 167 583 l 167 667 l 361 667 l 361 861 l 444 861 l 444 667 l 653 667 l 653 583 m 597 208 l 208 208 l 208 292 l 597 292 l 597 208 z "},"≤":{"ha":469,"x_min":69,"x_max":375,"o":"m 365 500 l 307 442 l 69 679 l 306 915 l 364 857 l 186 679 l 365 500 m 375 243 l 69 243 l 69 326 l 375 326 l 375 243 z "},"≥":{"ha":469,"x_min":69,"x_max":375,"o":"m 375 679 l 138 442 l 79 500 l 258 679 l 81 857 l 139 915 l 375 679 m 375 243 l 69 243 l 69 326 l 375 326 l 375 243 z "},"¥":{"ha":900,"x_min":139,"x_max":761,"o":"m 761 882 l 528 486 l 676 486 l 676 403 l 496 403 l 496 333 l 676 333 l 676 250 l 496 250 l 496 0 l 413 0 l 413 250 l 204 250 l 204 333 l 413 333 l 413 403 l 204 403 l 204 486 l 374 486 l 139 882 l 211 924 l 450 519 l 690 924 l 761 882 z "},"µ":{"ha":694,"x_min":0,"x_max":0,"o":""},"μ":{"ha":694,"x_min":0,"x_max":0,"o":""},"∂":{"ha":694,"x_min":0,"x_max":0,"o":""},"∑":{"ha":694,"x_min":0,"x_max":0,"o":""},"∏":{"ha":694,"x_min":0,"x_max":0,"o":""},"π":{"ha":1125,"x_min":76,"x_max":1049,"o":"m 756 560 q 704 438 756 488 q 579 388 653 388 l 579 457 q 657 486 625 457 q 689 560 689 515 q 659 632 689 601 q 588 663 629 663 q 519 635 551 663 q 488 572 488 608 l 488 146 l 421 146 l 421 710 l 488 710 l 488 699 q 588 732 535 732 q 708 683 661 732 q 756 560 756 635 m 1049 444 q 923 115 1049 256 q 610 -40 797 -25 l 610 43 q 865 174 764 58 q 965 444 965 289 q 847 729 965 611 q 563 847 729 847 q 278 729 396 847 q 160 444 160 611 q 260 175 160 290 q 513 44 360 60 l 513 -40 q 201 116 325 -24 q 76 444 76 256 q 219 788 76 646 q 563 931 361 931 q 906 788 764 931 q 1049 444 1049 646 z "},"∫":{"ha":681,"x_min":8,"x_max":674,"o":"m 674 924 l 590 924 q 559 997 590 965 q 486 1028 528 1028 q 419 1007 453 1028 q 382 951 382 982 l 382 153 q 320 47 382 93 q 196 0 258 0 q 64 56 119 0 q 8 188 8 111 l 92 188 q 123 115 92 146 q 196 83 154 83 q 265 106 229 83 q 300 160 300 129 l 300 958 q 364 1067 300 1018 q 486 1111 424 1111 q 618 1056 563 1111 q 674 924 674 1000 z "},"ª":{"ha":694,"x_min":0,"x_max":0,"o":""},"º":{"ha":833,"x_min":83,"x_max":750,"o":"m 750 289 q 667 69 750 164 q 460 -42 583 -26 l 460 43 q 608 128 549 57 q 667 289 667 199 q 593 465 667 392 q 417 539 519 539 q 240 465 314 539 q 167 289 167 392 q 226 128 167 199 q 374 43 285 58 l 374 -42 q 167 69 250 -26 q 83 289 83 164 q 181 524 83 426 q 417 622 279 622 q 652 524 554 622 q 750 289 750 426 z "},"Ω":{"ha":694,"x_min":0,"x_max":0,"o":""},"Ω":{"ha":694,"x_min":0,"x_max":0,"o":""},"æ":{"ha":1229,"x_min":0,"x_max":1174,"o":"m 1174 0 l 975 0 l 736 403 l 324 403 l 72 -21 l 0 21 l 517 889 l 1156 889 l 1156 806 l 592 806 l 782 486 l 1174 486 l 1174 403 l 832 403 l 1022 83 l 1174 83 l 1174 0 m 688 486 l 531 750 l 374 486 l 688 486 z "},"ø":{"ha":1126,"x_min":76,"x_max":1050,"o":"m 1050 444 q 907 99 1050 243 q 563 -44 764 -44 q 282 47 408 -44 l 342 108 q 563 39 443 39 q 848 158 729 39 q 967 444 967 278 q 850 730 967 613 q 565 847 733 847 q 279 728 399 847 q 160 442 160 608 q 222 231 160 325 l 163 171 q 76 443 76 290 q 220 788 76 644 q 565 931 364 931 q 875 819 739 931 l 931 875 l 989 815 l 935 761 q 1050 444 1050 624 m 842 669 l 197 24 l 139 83 l 783 729 q 842 669 817 710 z "},"¿":{"ha":944,"x_min":139,"x_max":806,"o":"m 565 885 q 549 846 565 863 q 510 829 532 829 q 471 846 488 829 q 454 885 454 863 q 471 924 454 907 q 510 940 488 940 q 549 924 532 940 q 565 885 565 907 m 806 333 q 708 98 806 196 q 472 0 610 0 q 237 98 335 0 q 139 333 139 196 q 178 489 139 415 l 251 447 q 224 333 224 393 q 297 156 224 229 q 472 83 369 83 q 649 157 575 83 q 722 333 722 231 q 649 510 722 436 q 472 585 575 585 l 472 724 l 556 724 l 556 657 q 735 538 665 628 q 806 333 806 447 z "},"¡":{"ha":389,"x_min":136,"x_max":247,"o":"m 153 724 l 236 724 l 236 0 l 153 0 l 153 724 m 136 883 q 153 922 136 906 q 192 939 169 939 q 231 922 214 939 q 247 883 247 906 q 231 844 247 861 q 192 828 214 828 q 153 844 169 828 q 136 883 136 861 z "},"¬":{"ha":694,"x_min":0,"x_max":0,"o":""},"√":{"ha":694,"x_min":0,"x_max":0,"o":""},"ƒ":{"ha":681,"x_min":8,"x_max":674,"o":"m 674 924 l 590 924 q 559 997 590 965 q 486 1028 528 1028 q 419 1007 453 1028 q 382 951 382 982 l 382 717 l 510 717 l 510 633 l 382 633 l 382 153 q 320 47 382 93 q 196 0 258 0 q 64 56 119 0 q 8 188 8 111 l 92 188 q 123 115 92 146 q 196 83 154 83 q 265 106 229 83 q 300 160 300 129 l 300 633 l 174 633 l 174 717 l 300 717 l 300 958 q 364 1067 300 1019 q 486 1111 424 1111 q 618 1056 563 1111 q 674 924 674 1000 z "},"≈":{"ha":694,"x_min":0,"x_max":0,"o":""},"⋲":{"ha":694,"x_min":0,"x_max":0,"o":""},"Δ":{"ha":694,"x_min":0,"x_max":0,"o":""},"∆":{"ha":694,"x_min":0,"x_max":0,"o":""},"«":{"ha":656,"x_min":69,"x_max":586,"o":"m 586 300 l 528 242 l 311 458 l 526 674 l 585 615 l 428 458 l 586 300 m 344 300 l 286 242 l 69 458 l 285 674 l 343 615 l 186 458 l 344 300 z "},"»":{"ha":656,"x_min":69,"x_max":586,"o":"m 586 458 l 369 242 l 311 300 l 469 458 l 313 615 l 371 674 l 586 458 m 344 458 l 128 242 l 69 300 l 228 458 l 71 615 l 129 674 l 344 458 z "},"…":{"ha":846,"x_min":153,"x_max":707,"o":"m 707 56 q 690 17 707 33 q 651 0 674 0 q 613 17 629 0 q 596 56 596 33 q 613 94 596 78 q 651 111 629 111 q 690 94 674 111 q 707 56 707 78 m 482 56 q 465 17 482 33 q 426 0 449 0 q 388 17 404 0 q 371 56 371 33 q 388 94 371 78 q 426 111 404 111 q 465 94 449 111 q 482 56 482 78 m 264 56 q 247 17 264 33 q 208 0 231 0 q 169 17 186 0 q 153 56 153 33 q 169 94 153 78 q 208 111 186 111 q 247 94 231 111 q 264 56 264 78 z "}," ":{"ha":625,"x_min":0,"x_max":0,"o":""},"À":{"ha":1058,"x_min":0,"x_max":1058,"o":"m 583 994 l 525 935 l 407 1053 l 465 1113 l 583 994 m 1058 21 l 988 -21 l 736 403 l 324 403 l 72 -21 l 0 21 l 529 910 l 1058 21 m 686 486 l 531 750 l 374 486 l 686 486 z "},"Ã":{"ha":1058,"x_min":0,"x_max":1058,"o":"m 731 1040 q 611 957 679 957 q 524 979 581 957 q 451 1001 468 1001 q 388 954 422 1001 l 331 986 q 451 1065 392 1065 q 537 1043 482 1065 q 613 1021 592 1021 q 676 1074 642 1021 l 731 1040 m 1058 21 l 988 -21 l 736 403 l 324 403 l 72 -21 l 0 21 l 529 910 l 1058 21 m 686 486 l 531 750 l 374 486 l 686 486 z "},"Õ":{"ha":1125,"x_min":76,"x_max":1049,"o":"m 738 1040 q 618 957 686 957 q 531 979 588 957 q 458 1001 475 1001 q 393 954 428 1001 l 338 986 q 458 1065 399 1065 q 544 1043 489 1065 q 618 1021 599 1021 q 683 1074 649 1021 l 738 1040 m 1049 444 q 923 115 1049 256 q 610 -40 797 -25 l 610 43 q 865 174 764 58 q 965 444 965 289 q 847 729 965 611 q 563 847 729 847 q 278 729 396 847 q 160 444 160 611 q 260 175 160 290 q 513 44 360 60 l 513 -40 q 201 116 325 -24 q 76 444 76 256 q 219 788 76 646 q 563 931 361 931 q 906 788 764 931 q 1049 444 1049 646 z "},"Œ":{"ha":1163,"x_min":76,"x_max":1093,"o":"m 1093 0 l 760 0 q 561 -40 669 -40 q 232 85 372 -40 q 76 399 92 211 l 160 399 q 290 144 175 244 q 561 43 406 43 q 760 93 668 43 l 760 794 q 561 849 664 849 q 292 748 407 849 q 160 496 176 647 l 76 496 q 233 808 93 683 q 561 932 372 932 q 760 889 663 932 l 1093 889 l 1093 806 l 843 806 l 843 486 l 1093 486 l 1093 403 l 843 403 l 843 83 l 1093 83 l 1093 0 z "},"œ":{"ha":1163,"x_min":76,"x_max":1093,"o":"m 1093 0 l 760 0 l 760 1 q 561 -40 665 -40 q 232 85 372 -40 q 76 399 92 211 l 160 399 q 290 144 175 244 q 561 43 406 43 q 760 93 668 43 l 760 794 q 561 849 664 849 q 292 748 407 849 q 160 496 176 647 l 76 496 q 233 808 93 683 q 561 932 372 932 q 760 889 663 932 l 1093 889 l 1093 806 l 843 806 l 843 486 l 1093 486 l 1093 403 l 843 403 l 843 83 l 1093 83 l 1093 0 z "},"–":{"ha":611,"x_min":139,"x_max":472,"o":"m 472 403 l 139 403 l 139 486 l 472 486 l 472 403 z "},"—":{"ha":944,"x_min":139,"x_max":806,"o":"m 806 403 l 139 403 l 139 486 l 806 486 l 806 403 z "},"“":{"ha":493,"x_min":69,"x_max":424,"o":"m 424 925 l 351 883 l 240 1075 l 313 1117 l 424 925 m 253 925 l 181 883 l 69 1075 l 142 1117 l 253 925 z "},"”":{"ha":493,"x_min":69,"x_max":424,"o":"m 424 1075 l 313 883 l 240 925 l 351 1117 l 424 1075 m 253 1075 l 142 883 l 69 925 l 181 1117 l 253 1075 z "},"‘":{"ha":322,"x_min":69,"x_max":253,"o":"m 253 925 l 181 883 l 69 1075 l 142 1117 l 253 925 z "},"’":{"ha":322,"x_min":69,"x_max":253,"o":"m 253 1075 l 142 883 l 69 925 l 181 1117 l 253 1075 z "},"÷":{"ha":479,"x_min":69,"x_max":410,"o":"m 293 604 q 276 565 293 582 q 238 549 260 549 q 199 565 215 549 q 182 604 182 582 q 199 643 182 626 q 238 660 215 660 q 276 643 260 660 q 293 604 293 626 m 410 403 l 69 403 l 69 486 l 410 486 l 410 403 m 293 278 q 276 239 293 256 q 238 222 260 222 q 199 239 215 222 q 182 278 182 256 q 199 317 182 300 q 238 333 215 333 q 276 317 260 333 q 293 278 293 300 z "},"◊":{"ha":694,"x_min":0,"x_max":0,"o":""},"ÿ":{"ha":826,"x_min":28,"x_max":785,"o":"m 619 1003 q 603 964 619 981 q 564 947 586 947 q 525 964 542 947 q 508 1003 508 981 q 525 1042 508 1025 q 564 1058 542 1058 q 603 1042 586 1058 q 619 1003 619 1025 m 317 1003 q 300 964 317 981 q 261 947 283 947 q 222 964 239 947 q 206 1003 206 981 q 222 1042 206 1025 q 261 1058 239 1058 q 300 1042 283 1058 q 317 1003 317 1025 m 785 869 l 271 -21 l 199 21 l 443 444 l 28 860 l 86 918 l 486 519 l 713 911 l 785 869 z "},"Ÿ":{"ha":826,"x_min":28,"x_max":785,"o":"m 619 1003 q 603 964 619 981 q 564 947 586 947 q 525 964 542 947 q 508 1003 508 981 q 525 1042 508 1025 q 564 1058 542 1058 q 603 1042 586 1058 q 619 1003 619 1025 m 317 1003 q 300 964 317 981 q 261 947 283 947 q 222 964 239 947 q 206 1003 206 981 q 222 1042 206 1025 q 261 1058 239 1058 q 300 1042 283 1058 q 317 1003 317 1025 m 785 869 l 271 -21 l 199 21 l 443 444 l 28 860 l 86 918 l 486 519 l 713 911 l 785 869 z "},"⁄":{"ha":656,"x_min":69,"x_max":586,"o":"m 586 808 l 142 39 l 69 81 l 514 850 l 586 808 z "},"¤":{"ha":1167,"x_min":35,"x_max":1063,"o":"m 1063 786 l 1003 726 q 715 847 885 847 q 494 781 596 847 q 346 604 393 714 l 715 604 l 715 521 l 319 521 q 313 438 313 481 l 639 438 l 639 354 l 322 354 q 465 130 354 218 q 715 42 575 42 q 878 76 800 42 l 921 4 q 715 -42 825 -42 q 406 70 540 -42 q 238 354 271 182 l 35 354 l 35 438 l 229 438 q 235 521 229 486 l 111 521 l 111 604 l 256 604 q 434 841 307 751 q 717 931 561 931 q 1063 786 921 931 z "},"‹":{"ha":414,"x_min":69,"x_max":344,"o":"m 344 300 l 286 242 l 69 458 l 285 674 l 343 615 l 186 458 l 344 300 z "},"›":{"ha":414,"x_min":69,"x_max":343,"o":"m 343 456 l 128 242 l 69 300 l 228 458 l 71 615 l 129 674 l 343 456 z "},"":{"ha":814,"x_min":132,"x_max":675,"o":"m 675 0 l 592 0 l 592 806 l 215 806 l 215 486 l 465 486 l 465 403 l 215 403 l 215 0 l 132 0 l 132 889 l 675 889 l 675 0 z "},"":{"ha":1011,"x_min":132,"x_max":942,"o":"m 942 0 l 608 0 l 608 806 l 215 806 l 215 486 l 465 486 l 465 403 l 215 403 l 215 0 l 132 0 l 132 889 l 692 889 l 692 83 l 942 83 l 942 0 z "},"‡":{"ha":472,"x_min":69,"x_max":403,"o":"m 403 625 l 278 625 l 278 444 l 194 444 l 194 625 l 69 625 l 69 708 l 194 708 l 194 889 l 69 889 l 69 972 l 194 972 l 194 1111 l 278 1111 l 278 972 l 403 972 l 403 889 l 278 889 l 278 708 l 403 708 l 403 625 z "},"·":{"ha":333,"x_min":125,"x_max":236,"o":"m 236 446 q 219 407 236 424 q 181 390 203 390 q 142 407 158 390 q 125 446 125 424 q 142 485 125 468 q 181 501 158 501 q 219 485 203 501 q 236 446 236 468 z "},"∙":{"ha":333,"x_min":125,"x_max":236,"o":"m 236 446 q 219 407 236 424 q 181 390 203 390 q 142 407 158 390 q 125 446 125 424 q 142 485 125 468 q 181 501 158 501 q 219 485 203 501 q 236 446 236 468 z "},"‚":{"ha":322,"x_min":69,"x_max":253,"o":"m 253 4 l 142 -189 l 69 -147 l 181 46 l 253 4 z "},"„":{"ha":493,"x_min":69,"x_max":424,"o":"m 424 1 l 313 -192 l 240 -150 l 351 43 l 424 1 m 253 1 l 142 -192 l 69 -150 l 181 43 l 253 1 z "},"‰":{"ha":1969,"x_min":69,"x_max":1900,"o":"m 1900 296 q 1835 122 1900 197 q 1674 32 1771 47 l 1674 117 q 1776 181 1736 131 q 1817 294 1817 231 q 1763 425 1817 371 q 1632 479 1708 479 q 1501 425 1556 479 q 1447 296 1447 371 q 1488 181 1447 232 q 1590 115 1528 131 l 1590 31 q 1428 122 1493 46 q 1364 294 1364 197 q 1442 484 1364 406 q 1632 563 1521 563 q 1821 484 1742 563 q 1900 296 1900 406 m 1306 296 q 1241 122 1306 197 q 1079 32 1176 47 l 1079 117 q 1182 181 1142 131 q 1222 294 1222 231 q 1169 425 1222 371 q 1039 479 1115 479 q 908 426 963 479 q 854 296 854 372 q 894 181 854 232 q 997 115 935 131 l 996 31 q 835 122 900 46 q 771 294 771 197 q 849 484 771 406 q 1038 563 926 563 q 1227 485 1149 563 q 1306 296 1306 407 m 944 808 l 500 39 l 428 81 l 872 850 l 944 808 m 604 588 q 540 414 604 489 q 378 324 475 339 l 378 408 q 481 472 440 422 q 521 586 521 522 q 467 717 521 663 q 338 771 414 771 q 207 717 261 771 q 153 588 153 664 q 193 473 153 524 q 296 407 233 422 l 294 322 q 134 413 199 338 q 69 586 69 489 q 147 776 69 697 q 336 854 225 854 q 526 776 447 854 q 604 588 604 699 z "},"Â":{"ha":1058,"x_min":0,"x_max":1058,"o":"m 651 965 l 571 965 l 525 1022 l 476 964 l 394 965 l 524 1118 l 651 965 m 1058 21 l 988 -21 l 736 403 l 324 403 l 72 -21 l 0 21 l 529 910 l 1058 21 m 686 486 l 531 750 l 374 486 l 686 486 z "},"Ê":{"ha":535,"x_min":132,"x_max":465,"o":"m 426 965 l 346 965 l 299 1022 l 251 964 l 169 965 l 297 1118 l 426 965 m 465 0 l 132 0 l 132 889 l 465 889 l 465 806 l 215 806 l 215 486 l 465 486 l 465 403 l 215 403 l 215 83 l 465 83 l 465 0 z "},"Á":{"ha":1058,"x_min":0,"x_max":1058,"o":"m 650 1053 l 532 935 l 472 994 l 590 1113 l 650 1053 m 1058 21 l 988 -21 l 736 403 l 324 403 l 72 -21 l 0 21 l 529 910 l 1058 21 m 686 486 l 531 750 l 374 486 l 686 486 z "},"Ë":{"ha":615,"x_min":132,"x_max":546,"o":"m 546 1003 q 529 964 546 981 q 490 947 513 947 q 451 964 468 947 q 435 1003 435 981 q 451 1042 435 1025 q 490 1058 468 1058 q 529 1042 513 1058 q 546 1003 546 1025 m 243 1003 q 226 964 243 981 q 188 947 210 947 q 149 964 165 947 q 132 1003 132 981 q 149 1042 132 1025 q 188 1058 165 1058 q 226 1042 210 1058 q 243 1003 243 1025 m 515 403 l 264 403 l 264 83 l 514 83 l 514 0 l 181 0 l 181 889 l 514 889 l 514 806 l 264 806 l 264 486 l 515 486 l 515 403 z "},"È":{"ha":535,"x_min":132,"x_max":465,"o":"m 364 994 l 304 935 l 188 1053 l 246 1113 l 364 994 m 465 0 l 132 0 l 132 889 l 465 889 l 465 806 l 215 806 l 215 486 l 465 486 l 465 403 l 215 403 l 215 83 l 465 83 l 465 0 z "},"Í":{"ha":468,"x_min":153,"x_max":329,"o":"m 329 1053 l 211 935 l 153 993 l 269 1111 l 329 1053 m 260 0 l 176 0 l 176 889 l 260 889 l 260 0 z "},"Î":{"ha":563,"x_min":153,"x_max":410,"o":"m 410 965 l 329 965 l 283 1022 l 235 964 l 153 965 l 282 1118 l 410 965 m 319 0 l 236 0 l 236 889 l 319 889 l 319 0 z "},"Ï":{"ha":719,"x_min":153,"x_max":567,"o":"m 567 1003 q 550 964 567 981 q 511 947 533 947 q 472 964 489 947 q 456 1003 456 981 q 472 1042 456 1025 q 511 1058 489 1058 q 550 1042 533 1058 q 567 1003 567 1025 m 264 1003 q 247 964 264 981 q 208 947 231 947 q 169 964 186 947 q 153 1003 153 981 q 169 1042 153 1025 q 208 1058 186 1058 q 247 1042 231 1058 q 264 1003 264 1025 m 415 0 l 332 0 l 332 889 l 415 889 l 415 0 z "},"Ì":{"ha":482,"x_min":153,"x_max":329,"o":"m 329 994 l 271 935 l 153 1053 l 211 1113 l 329 994 m 319 0 l 236 0 l 236 889 l 319 889 l 319 0 z "},"Ó":{"ha":1125,"x_min":76,"x_max":1049,"o":"m 661 1106 l 543 988 l 485 1047 l 603 1165 l 661 1106 m 1049 444 q 923 115 1049 256 q 610 -40 797 -25 l 610 43 q 865 174 764 58 q 965 444 965 289 q 847 729 965 611 q 563 847 729 847 q 278 729 396 847 q 160 444 160 611 q 260 175 160 290 q 513 44 360 60 l 513 -40 q 201 116 325 -24 q 76 444 76 256 q 219 788 76 646 q 563 931 361 931 q 906 788 764 931 q 1049 444 1049 646 z "},"Ô":{"ha":1125,"x_min":76,"x_max":1049,"o":"m 688 1001 l 606 1001 l 558 1058 l 511 1001 l 429 1001 l 558 1156 l 688 1001 m 1049 444 q 923 115 1049 256 q 610 -40 797 -25 l 610 43 q 865 174 764 58 q 965 444 965 289 q 847 729 965 611 q 563 847 729 847 q 278 729 396 847 q 160 444 160 611 q 260 175 160 290 q 513 44 360 60 l 513 -40 q 201 116 325 -24 q 76 444 76 256 q 219 788 76 646 q 563 931 361 931 q 906 788 764 931 q 1049 444 1049 646 z "},"":{"ha":694,"x_min":0,"x_max":0,"o":""},"Ò":{"ha":1125,"x_min":76,"x_max":1049,"o":"m 624 1033 l 564 975 l 446 1093 l 506 1151 l 624 1033 m 1049 444 q 923 115 1049 256 q 610 -40 797 -25 l 610 43 q 865 174 764 58 q 965 444 965 289 q 847 729 965 611 q 563 847 729 847 q 278 729 396 847 q 160 444 160 611 q 260 175 160 290 q 513 44 360 60 l 513 -40 q 201 116 325 -24 q 76 444 76 256 q 219 788 76 646 q 563 931 361 931 q 906 788 764 931 q 1049 444 1049 646 z "},"Ú":{"ha":778,"x_min":104,"x_max":658,"o":"m 483 1053 l 365 935 l 306 994 l 424 1113 l 483 1053 m 658 -83 l 575 -83 l 575 50 q 382 -28 494 -28 q 186 54 268 -28 q 104 250 104 136 l 104 972 l 188 972 l 188 250 q 244 113 188 169 q 382 56 301 56 q 513 107 451 56 q 575 226 575 158 l 575 889 l 658 889 l 658 -83 z "},"Û":{"ha":778,"x_min":104,"x_max":658,"o":"m 533 965 l 453 965 l 406 1022 l 358 964 l 276 965 l 406 1118 l 533 965 m 658 -83 l 575 -83 l 575 50 q 382 -28 494 -28 q 186 54 268 -28 q 104 250 104 136 l 104 972 l 188 972 l 188 250 q 244 113 188 169 q 382 56 301 56 q 513 107 451 56 q 575 226 575 158 l 575 889 l 658 889 l 658 -83 z "},"Ù":{"ha":778,"x_min":104,"x_max":658,"o":"m 447 994 l 388 935 l 269 1053 l 329 1113 l 447 994 m 658 -83 l 575 -83 l 575 50 q 382 -28 494 -28 q 186 54 268 -28 q 104 250 104 136 l 104 972 l 188 972 l 188 250 q 244 113 188 169 q 382 56 301 56 q 513 107 451 56 q 575 226 575 158 l 575 889 l 658 889 l 658 -83 z "},"ı":{"ha":389,"x_min":153,"x_max":236,"o":"m 236 0 l 153 0 l 153 889 l 236 889 l 236 0 z "},"ˆ":{"ha":396,"x_min":69,"x_max":326,"o":"m 326 965 l 246 965 l 200 1022 l 151 964 l 69 965 l 199 1118 l 326 965 z "},"˜":{"ha":539,"x_min":69,"x_max":469,"o":"m 469 1040 q 350 957 418 957 q 263 979 319 957 q 190 1001 207 1001 q 126 954 161 1001 l 69 986 q 190 1065 131 1065 q 276 1043 221 1065 q 351 1021 331 1021 q 415 1074 381 1021 l 469 1040 z "},"¯":{"ha":361,"x_min":69,"x_max":292,"o":"m 292 1028 l 69 1028 l 69 1111 l 292 1111 l 292 1028 z "},"ˉ":{"ha":361,"x_min":69,"x_max":292,"o":"m 292 1028 l 69 1028 l 69 1111 l 292 1111 l 292 1028 z "},"˘":{"ha":375,"x_min":69,"x_max":306,"o":"m 306 1111 q 269 1028 303 1063 q 188 993 235 993 q 106 1028 140 993 q 69 1111 72 1063 l 144 1111 q 188 1072 150 1072 q 231 1111 225 1072 l 306 1111 z "},"˙":{"ha":167,"x_min":42,"x_max":153,"o":"m 153 1057 q 136 1018 153 1035 q 97 1001 119 1001 q 58 1018 75 1001 q 42 1057 42 1035 q 58 1096 42 1079 q 97 1113 75 1113 q 136 1096 119 1113 q 153 1057 153 1079 z "},"˚":{"ha":340,"x_min":69,"x_max":271,"o":"m 271 1067 q 241 996 271 1026 q 171 965 211 965 q 100 995 131 965 q 69 1065 69 1025 q 99 1136 69 1106 q 169 1167 129 1167 q 240 1137 210 1167 q 271 1067 271 1107 m 215 1067 q 202 1098 215 1085 q 171 1111 189 1111 q 139 1098 153 1111 q 125 1067 125 1085 q 138 1035 125 1049 q 169 1021 151 1021 q 215 1067 215 1021 z "},"¸":{"ha":285,"x_min":69,"x_max":215,"o":"m 215 -7 l 167 -85 q 199 -179 199 -128 q 122 -317 199 -272 l 85 -243 q 118 -183 122 -221 q 69 -118 113 -136 l 160 28 l 215 -7 z "},"˝":{"ha":493,"x_min":69,"x_max":424,"o":"m 424 1110 l 313 918 l 240 960 l 351 1151 l 424 1110 m 253 1110 l 142 918 l 69 960 l 181 1151 l 253 1110 z "},"˛":{"ha":296,"x_min":69,"x_max":226,"o":"m 226 -181 q 115 -134 161 -181 q 69 -22 69 -87 l 153 -22 q 172 -74 153 -51 q 221 -97 192 -97 l 226 -181 z "},"ˇ":{"ha":378,"x_min":69,"x_max":326,"o":"m 326 1115 l 197 963 l 69 1115 l 151 1117 l 200 1058 l 246 1115 l 326 1115 z "},"Ł":{"ha":551,"x_min":7,"x_max":482,"o":"m 482 0 l 149 0 l 149 372 l 49 304 l 7 376 l 149 474 l 149 889 l 232 889 l 232 531 l 332 599 l 374 526 l 232 429 l 232 83 l 482 83 l 482 0 z "},"ł":{"ha":551,"x_min":7,"x_max":482,"o":"m 482 0 l 149 0 l 149 372 l 49 304 l 7 376 l 149 474 l 149 889 l 232 889 l 232 531 l 332 599 l 374 526 l 232 429 l 232 83 l 482 83 l 482 0 z "},"Š":{"ha":665,"x_min":69,"x_max":651,"o":"m 493 1151 l 364 999 l 236 1151 l 318 1153 l 367 1094 l 413 1151 l 493 1151 m 382 164 q 319 271 382 236 l 361 340 q 463 164 463 282 q 403 19 463 79 q 260 -40 343 -40 q 82 63 143 -40 l 151 103 q 260 40 189 40 q 347 76 311 40 q 382 164 382 113 m 408 860 q 226 783 301 860 q 150 600 150 707 q 185 470 150 531 q 281 375 221 410 l 240 306 q 115 430 161 350 q 69 600 69 510 q 169 840 69 740 q 408 940 268 940 q 651 839 550 940 l 594 782 q 408 860 517 860 z "},"š":{"ha":665,"x_min":69,"x_max":651,"o":"m 493 1151 l 364 999 l 236 1153 l 318 1153 l 367 1094 l 413 1151 l 493 1151 m 382 164 q 319 271 382 236 l 361 340 q 463 164 463 282 q 403 19 463 79 q 260 -40 343 -40 q 82 63 143 -40 l 151 103 q 260 40 189 40 q 347 76 311 40 q 382 164 382 113 m 408 860 q 226 783 301 860 q 150 600 150 707 q 185 470 150 531 q 281 375 221 410 l 240 306 q 115 430 161 350 q 69 600 69 510 q 169 840 69 740 q 408 940 268 940 q 651 839 550 940 l 594 782 q 408 860 517 860 z "},"Ž":{"ha":840,"x_min":56,"x_max":833,"o":"m 535 1122 l 406 969 l 278 1122 l 360 1124 l 408 1065 l 454 1122 l 535 1122 m 833 0 l 56 0 l 304 431 l 138 431 l 138 514 l 353 514 l 521 806 l 140 806 l 140 889 l 571 889 l 642 847 l 449 514 l 610 514 l 610 431 l 401 431 l 200 83 l 833 83 l 833 0 z "},"ž":{"ha":840,"x_min":56,"x_max":833,"o":"m 535 1122 l 407 969 l 278 1122 l 360 1122 l 408 1065 l 454 1122 l 535 1122 m 833 0 l 56 0 l 304 431 l 138 431 l 138 514 l 353 514 l 521 806 l 140 806 l 140 889 l 571 889 l 642 847 l 449 514 l 610 514 l 610 431 l 401 431 l 200 83 l 833 83 l 833 0 z "},"¦":{"ha":694,"x_min":0,"x_max":0,"o":""},"Ð":{"ha":1172,"x_min":69,"x_max":1096,"o":"m 1096 444 q 953 101 1096 243 q 610 -42 811 -42 q 533 -36 568 -42 l 533 49 q 610 42 575 42 q 894 160 776 42 q 1013 444 1013 278 q 894 728 1013 610 q 611 847 776 847 q 427 803 515 847 q 283 681 339 758 l 283 486 l 403 486 l 403 403 l 283 403 l 283 0 l 200 0 l 200 403 l 69 403 l 69 486 l 200 486 l 200 889 l 283 889 l 283 804 q 611 931 422 931 q 954 788 813 931 q 1096 444 1096 646 z "},"ð":{"ha":1172,"x_min":69,"x_max":1096,"o":"m 1096 444 q 953 101 1096 243 q 610 -42 811 -42 q 533 -36 568 -42 l 533 49 q 610 42 575 42 q 894 160 776 42 q 1013 444 1013 278 q 894 728 1013 610 q 611 847 776 847 q 427 803 515 847 q 283 681 339 758 l 283 486 l 403 486 l 403 403 l 283 403 l 283 0 l 200 0 l 200 403 l 69 403 l 69 486 l 200 486 l 200 889 l 283 889 l 283 804 q 611 931 422 931 q 954 788 813 931 q 1096 444 1096 646 z "},"Ý":{"ha":826,"x_min":28,"x_max":785,"o":"m 504 1053 l 386 935 l 328 994 l 446 1113 l 504 1053 m 785 869 l 271 -21 l 199 21 l 443 444 l 28 860 l 86 918 l 486 519 l 713 911 l 785 869 z "},"Þ":{"ha":715,"x_min":119,"x_max":646,"o":"m 646 447 q 569 260 646 338 q 382 183 492 183 l 382 267 q 510 319 457 267 q 563 447 563 372 q 510 575 563 522 q 382 628 457 628 q 261 582 318 628 q 203 469 203 532 l 203 0 l 119 0 l 119 889 l 203 889 l 203 640 q 382 711 278 711 q 569 634 492 711 q 646 447 646 557 z "},"þ":{"ha":715,"x_min":119,"x_max":646,"o":"m 646 447 q 569 260 646 338 q 382 183 492 183 l 382 267 q 510 319 457 267 q 563 447 563 372 q 510 575 563 522 q 382 628 457 628 q 261 582 318 628 q 203 469 203 532 l 203 0 l 119 0 l 119 889 l 203 889 l 203 640 q 382 711 278 711 q 569 634 492 711 q 646 447 646 557 z "},"­":{"ha":500,"x_min":139,"x_max":361,"o":"m 361 403 l 139 403 l 139 486 l 361 486 l 361 403 z "},"−":{"ha":500,"x_min":139,"x_max":361,"o":"m 361 403 l 139 403 l 139 486 l 361 486 l 361 403 z "},"¹":{"ha":694,"x_min":0,"x_max":0,"o":""},"²":{"ha":694,"x_min":0,"x_max":0,"o":""},"³":{"ha":694,"x_min":0,"x_max":0,"o":""},"½":{"ha":694,"x_min":0,"x_max":0,"o":""},"¼":{"ha":694,"x_min":0,"x_max":0,"o":""},"¾":{"ha":694,"x_min":0,"x_max":0,"o":""}}}
